<svg width="30" height="28" viewBox="0 0 30 28" fill="none" xmlns="http://www.w3.org/2000/svg">
<path d="M9.80118 14C9.80118 11.4228 11.9944 9.33296 14.7006 9.33296C17.4068 9.33296 19.6012 11.4228 19.6012 14C19.6012 16.5772 17.4068 18.667 14.7006 18.667C11.9944 18.667 9.80118 16.5772 9.80118 14ZM7.15201 14C7.15201 17.9704 10.5315 21.1888 14.7006 21.1888C18.8697 21.1888 22.2492 17.9704 22.2492 14C22.2492 10.0296 18.8697 6.81117 14.7006 6.81117C10.5315 6.81117 7.15201 10.0296 7.15201 14ZM20.7839 6.52613C20.7838 6.8584 20.8871 7.18325 21.0808 7.4596C21.2746 7.73595 21.55 7.95138 21.8723 8.07866C22.1946 8.20594 22.5492 8.23934 22.8915 8.17465C23.2337 8.10996 23.5481 7.95007 23.7949 7.71521C24.0417 7.48036 24.2098 7.18107 24.278 6.85521C24.3462 6.52935 24.3114 6.19154 24.1781 5.88451C24.0447 5.57748 23.8187 5.31502 23.5287 5.1303C23.2386 4.94559 22.8976 4.84693 22.5487 4.8468H22.548C22.0803 4.84701 21.6319 5.02398 21.3011 5.33885C20.9703 5.65372 20.7843 6.08074 20.7839 6.52613ZM8.76155 25.3957C7.3283 25.3335 6.54929 25.1061 6.03159 24.9141C5.34525 24.6596 4.85555 24.3565 4.34067 23.8669C3.8258 23.3772 3.50709 22.9113 3.24107 22.2576C3.03926 21.7648 2.80052 21.0227 2.73537 19.6578C2.6641 18.1821 2.64987 17.7388 2.64987 14.0001C2.64987 10.2614 2.66528 9.81938 2.73537 8.34243C2.80064 6.97749 3.04114 6.23683 3.24107 5.74258C3.50827 5.08894 3.8265 4.62258 4.34067 4.13224C4.85484 3.6419 5.34408 3.33838 6.03159 3.08504C6.54905 2.89285 7.3283 2.66549 8.76155 2.60344C10.3111 2.53557 10.7766 2.52202 14.7006 2.52202C18.6246 2.52202 19.0905 2.53669 20.6414 2.60344C22.0746 2.6656 22.8524 2.89464 23.3713 3.08504C24.0577 3.33838 24.5474 3.64258 25.0623 4.13224C25.5771 4.6219 25.8947 5.08894 26.1619 5.74258C26.3637 6.23538 26.6024 6.97749 26.6676 8.34243C26.7388 9.81938 26.7531 10.2614 26.7531 14.0001C26.7531 17.7388 26.7388 18.1808 26.6676 19.6578C26.6023 21.0227 26.3624 21.7646 26.1619 22.2576C25.8947 22.9113 25.5764 23.3776 25.0623 23.8669C24.5481 24.3561 24.0577 24.6596 23.3713 24.9141C22.8539 25.1063 22.0746 25.3336 20.6414 25.3957C19.0918 25.4635 18.6264 25.4771 14.7006 25.4771C10.7748 25.4771 10.3106 25.4635 8.76155 25.3957ZM8.63983 0.084784C7.07486 0.152656 6.00548 0.388976 5.07159 0.735056C4.1044 1.09245 3.28564 1.57192 2.46746 2.34987C1.64929 3.12782 1.14712 3.9088 0.77184 4.82989C0.408441 5.71984 0.160295 6.7377 0.0890268 8.22808C0.0165823 9.72082 0 10.198 0 14C0 17.802 0.0165823 18.2792 0.0890268 19.7719C0.160295 21.2624 0.408441 22.2802 0.77184 23.1701C1.14712 24.0906 1.64941 24.8725 2.46746 25.6501C3.28552 26.4277 4.1044 26.9065 5.07159 27.2649C6.00725 27.611 7.07486 27.8473 8.63983 27.9152C10.2081 27.9831 10.7084 28 14.7006 28C18.6928 28 19.1939 27.9842 20.7613 27.9152C22.3264 27.8473 23.3951 27.611 24.3296 27.2649C25.2962 26.9065 26.1155 26.4281 26.9337 25.6501C27.7519 24.8722 28.253 24.0906 28.6293 23.1701C28.9927 22.2802 29.2421 21.2623 29.3122 19.7719C29.3834 18.2781 29.4 17.802 29.4 14C29.4 10.198 29.3834 9.72082 29.3122 8.22808C29.2409 6.73758 28.9927 5.71928 28.6293 4.82989C28.253 3.90936 27.7506 3.12906 26.9337 2.34987C26.1168 1.57069 25.2962 1.09245 24.3308 0.735056C23.3951 0.388976 22.3263 0.151536 20.7625 0.084784C19.1951 0.016912 18.694 0 14.7018 0C10.7096 0 10.2081 0.015792 8.63983 0.084784Z" fill="#222222"/>
</svg>
