<svg width="107" height="50" viewBox="0 0 107 50" fill="none" xmlns="http://www.w3.org/2000/svg">
<path d="M27.4386 49.9981H2.41417C1.93608 49.9981 1.458 50.0046 0.979907 49.9935C0.158889 49.9741 0.0268025 49.8273 0.00594876 48.9224C-0.00254719 48.5411 0.000551107 48.1598 0.000551107 47.7794C0.000551107 32.5985 0.000551107 17.4175 0.000551107 2.2366C0.000551107 1.66693 0.0329942 1.09722 0.0577097 0.528461C0.0775101 0.404921 0.130009 0.292312 0.207477 0.207187C0.284944 0.122062 0.383277 0.0689678 0.487919 0.055764C1.01776 0.0308348 1.54837 0.00222773 2.07898 0.00222773C13.3436 0.00222773 24.6082 0.00222773 35.8728 0.00222773C41.6114 0.00222773 47.35 0.00222773 53.0887 0.00222773C55.0389 0.00222773 54.9423 -0.152898 54.9423 2.12581C54.9423 17.3708 54.9423 32.6154 54.9423 47.8597C54.9423 48.3666 54.9254 48.8754 54.9037 49.3813C54.8947 49.5404 54.8354 49.6894 54.7379 49.7981C54.6404 49.9068 54.5119 49.9671 54.3785 49.9667C53.8479 49.988 53.3165 50 52.7859 50C44.3363 49.9994 35.8872 49.9987 27.4386 49.9981ZM27.4386 47.2411C35.1447 47.2411 42.8508 47.2411 50.5569 47.2411C51.0875 47.2411 51.6181 47.2153 52.148 47.1912C52.2529 47.1771 52.3513 47.1231 52.4287 47.0372C52.5062 46.9513 52.5585 46.838 52.5781 46.7139C52.6013 46.1443 52.6299 45.5746 52.6299 45.0049C52.6325 31.6632 52.6325 18.3215 52.6299 4.97974C52.6299 4.53471 52.6299 4.08967 52.6191 3.64556C52.6036 3.14329 52.4932 2.79982 51.9718 2.77766C51.6536 2.76381 51.3339 2.76103 51.0157 2.76103C35.3373 2.76103 19.6584 2.76103 3.97897 2.76103C3.60721 2.76103 3.23571 2.77121 2.86447 2.79152C2.7315 2.79749 2.60476 2.86047 2.50747 2.96898C2.41017 3.07749 2.34882 3.22423 2.33462 3.38239C2.31609 3.88929 2.3045 4.39807 2.3045 4.90496C2.3045 18.3107 2.3045 31.7161 2.3045 45.1213C2.3045 47.3981 2.20872 47.2448 4.15816 47.2448L27.4386 47.2411Z" fill="#7DC4FF"/>
<path d="M61.3562 24.4764C61.3562 20.0944 61.3562 15.7121 61.3562 11.3295C61.3562 10.7579 61.3507 10.1864 61.3299 9.6158C61.3292 9.42467 61.2836 9.23761 61.1984 9.07587C61.1132 8.91413 60.9918 8.78423 60.848 8.70084C60.6634 8.58358 60.4131 8.45526 60.3475 8.25767C60.2188 7.91032 60.1546 7.53371 60.1594 7.15386C60.1642 6.77402 60.2379 6.39993 60.3753 6.05739C60.4305 5.95334 60.5165 5.87815 60.6162 5.8469C60.7701 5.79945 60.9285 5.77616 61.0874 5.77765C62.9998 5.77334 64.9123 5.77334 66.8252 5.77765C67.0363 5.77879 67.2466 5.80976 67.4516 5.86995C67.5568 5.89593 67.6534 5.95771 67.7299 6.04781C67.8063 6.1379 67.8594 6.25251 67.8826 6.37781C67.9341 6.68702 67.96 7.00151 67.9599 7.31678C67.9684 9.03136 67.9599 10.7459 67.9722 12.4614C67.9869 12.6387 68.0266 12.8116 68.0896 12.973C68.1031 13.0009 68.1224 13.0241 68.1457 13.0403C68.169 13.0565 68.1955 13.0651 68.2224 13.0653C68.3219 13.0446 68.4162 12.9973 68.4982 12.9268C68.9441 12.4761 69.4375 12.0971 69.9657 11.7995C70.7824 11.3229 71.7011 11.155 72.5996 11.3181C73.4981 11.4813 74.3337 11.9676 74.9952 12.7126C76.0802 13.9451 76.8403 15.5298 77.1818 17.2719C77.5579 19.0569 77.7892 20.8812 77.8723 22.7193C78.0181 25.8907 78.0271 29.0689 77.8993 32.2413C77.8209 34.0797 77.6004 35.9055 77.2405 37.6953C76.9614 39.1879 76.3822 40.5766 75.5529 41.7412C75.1093 42.3773 74.5646 42.902 73.9503 43.285C73.4329 43.613 72.8627 43.8048 72.2782 43.8476C71.6936 43.8905 71.1082 43.7834 70.5612 43.5334C69.778 43.1425 69.0468 42.6168 68.3908 41.973C68.2642 41.8603 68.0347 41.9268 68.0116 42.0801C67.9838 42.2647 67.9753 42.4577 67.9452 42.6432C67.9283 42.7663 67.8958 42.8857 67.8486 42.9969C67.8065 43.1134 67.741 43.2155 67.6578 43.2943C67.5747 43.3731 67.4765 43.426 67.3721 43.4484C67.2147 43.4747 67.056 43.4889 66.8971 43.4909C64.9317 43.4909 62.966 43.4909 61.0001 43.4909C60.8943 43.4909 60.7877 43.477 60.6826 43.4678C60.577 43.4572 60.4775 43.4046 60.3998 43.3184C60.3221 43.2322 60.2707 43.1174 60.254 42.9923C60.2231 42.5519 60.1992 42.1096 60.193 41.6683C60.1814 41.4774 60.2148 41.2865 60.2893 41.1171C60.3638 40.9477 60.4766 40.8066 60.6147 40.7099C60.7484 40.6068 60.8747 40.4907 60.9924 40.3627C61.094 40.2603 61.1764 40.1332 61.234 39.99C61.2917 39.8468 61.3233 39.6906 61.3268 39.5317C61.3446 38.9611 61.3554 38.3896 61.3554 37.8181C61.3575 33.369 61.3577 28.9218 61.3562 24.4764ZM67.9637 27.6248C67.9637 30.7314 67.9637 33.8384 67.9637 36.9456C67.9592 37.3888 67.9736 37.8319 68.007 38.2733C68.0307 38.4593 68.1003 38.6326 68.207 38.7709C68.3353 38.9534 68.4983 39.0965 68.6823 39.1883C68.8664 39.2801 69.0662 39.3179 69.2649 39.2985C69.4637 39.2792 69.6557 39.2033 69.8249 39.0771C69.9941 38.951 70.1356 38.7782 70.2375 38.5734C70.3903 38.2427 70.5051 37.889 70.5789 37.5217C70.7031 36.7746 70.7472 36.0117 70.7102 35.2513C70.7102 30.0519 70.7102 24.8528 70.7102 19.654C70.7102 19.2736 70.7311 18.8904 70.7002 18.5137C70.6612 17.9459 70.5926 17.3816 70.4947 16.824C70.4166 16.4843 70.2317 16.1938 69.9788 16.013C69.7258 15.8323 69.4242 15.7752 69.1369 15.8537C68.9639 15.8621 68.7942 15.9139 68.6389 16.0058C68.4837 16.0976 68.3464 16.2274 68.2358 16.3868C68.1253 16.5462 68.044 16.7317 67.9972 16.931C67.9505 17.1304 67.9393 17.3394 67.9645 17.5442C67.9598 17.7981 67.9645 18.052 67.9645 18.305L67.9637 27.6248Z" fill="#3C3C3C"/>
<path d="M87.1297 32.6069C87.1297 34.0039 87.1366 35.4008 87.1297 36.7969C87.1252 37.4965 87.2346 38.1905 87.4517 38.8401C88.021 40.5704 89.3054 40.8899 90.5844 40.1282C90.9628 39.8916 91.2856 39.5456 91.5236 39.1217C91.8707 38.558 92.1158 37.914 92.2435 37.2308C92.4052 36.4937 92.499 35.7376 92.523 34.9761C92.525 34.5954 92.5441 34.215 92.5802 33.8368C92.5974 33.6459 92.6693 33.468 92.7838 33.3333C92.8983 33.1987 93.0482 33.1156 93.2081 33.0981C93.5201 33.0216 93.8374 32.9805 94.1558 32.9753C95.7253 33.051 95.8751 33.2107 95.8349 35.1091C95.7911 37.2881 95.1039 39.3784 93.8948 41.0099C93.1124 42.1444 92.08 42.9941 90.9143 43.463C89.7487 43.9318 88.4964 44.0009 87.2996 43.6626C85.8297 43.325 84.4804 42.4611 83.4308 41.1854C81.9489 39.4353 80.9207 37.2114 80.4696 34.7804C80.0829 32.8672 79.8655 30.9108 79.8208 28.9433C79.7555 26.72 79.8648 24.4943 80.1475 22.2955C80.3567 20.5354 80.7768 18.8205 81.3949 17.2035C81.944 15.7537 82.7355 14.4535 83.7205 13.3829C84.5895 12.4376 85.6447 11.7708 86.7875 11.4448C87.9304 11.1188 89.1237 11.1443 90.2562 11.5187C91.2406 11.8216 92.1336 12.4501 92.8328 13.332C93.6914 14.3748 94.3634 15.6157 94.8077 16.9791C95.2606 18.3355 95.5578 19.7589 95.6913 21.2106C95.8559 22.9782 95.9037 24.7587 95.8341 26.5353C95.8381 26.6141 95.8274 26.693 95.803 26.7663C95.7785 26.8396 95.7408 26.9057 95.6926 26.9596C95.6443 27.0135 95.5868 27.0541 95.524 27.0785C95.4611 27.1028 95.3945 27.1103 95.329 27.1004C94.9575 27.1105 94.586 27.1096 94.2138 27.1096H88.9563C88.5315 27.1096 88.1067 27.1096 87.6819 27.1179C87.2957 27.1262 87.1412 27.3312 87.1366 27.838C87.1312 29.4252 87.1366 31.0124 87.1366 32.5996L87.1297 32.6069ZM89.6406 19.9254H89.6506C89.6506 18.7833 89.6506 17.6411 89.6506 16.499C89.6649 15.9893 89.5686 15.4838 89.371 15.0318C89.2833 14.8352 89.1515 14.6716 88.9904 14.5594C88.8293 14.4472 88.6453 14.3908 88.4589 14.3966C88.2472 14.3655 88.0326 14.4093 87.8415 14.5225C87.6504 14.6358 87.4912 14.8135 87.3838 15.0337C87.1862 15.4852 87.0974 15.9935 87.1274 16.5018C87.1274 18.7866 87.1274 21.0712 87.1274 23.3554C87.1274 23.4191 87.1343 23.4819 87.1366 23.5456C87.1341 23.6695 87.1712 23.7899 87.2404 23.8822C87.3095 23.9745 87.4056 24.0318 87.5089 24.0424C88.0918 24.0455 88.6749 24.0436 89.2583 24.0369C89.3624 24.0273 89.4596 23.9707 89.5302 23.8786C89.6008 23.7866 89.6394 23.6659 89.6383 23.541C89.6422 22.337 89.6406 21.1312 89.6406 19.9254Z" fill="#3C3C3C"/>
<path d="M105.297 23.1288V37.788C105.297 38.1056 105.31 38.4241 105.297 38.7399C105.234 39.1158 105.268 39.506 105.395 39.8581C105.522 40.2101 105.737 40.5072 106.009 40.7093C106.074 40.7641 106.128 40.8349 106.168 40.9167C106.208 40.9985 106.233 41.0897 106.241 41.1839C106.262 41.7499 106.241 42.3187 106.226 42.8865C106.22 43.0758 105.961 43.3629 105.798 43.398C105.644 43.4419 105.487 43.4699 105.329 43.482C102.993 43.4869 100.657 43.4869 98.3212 43.482C98.216 43.4932 98.1101 43.4742 98.0122 43.4266C97.8833 43.3398 97.7079 43.2226 97.6763 43.0795C97.5171 42.34 97.5142 41.5649 97.6678 40.8238C97.7058 40.6708 97.7708 40.5293 97.8583 40.4088C97.9458 40.2882 98.0539 40.1914 98.1752 40.1249C98.3415 40.0247 98.4796 39.8685 98.5724 39.6755C98.6652 39.4825 98.7087 39.2613 98.6974 39.0391C98.6974 38.595 98.7066 38.1509 98.7066 37.7068C98.7066 29.0123 98.7066 20.3182 98.7066 11.6244C98.7066 11.1166 98.7066 10.6088 98.6881 10.1019C98.6965 9.91093 98.6617 9.72082 98.5872 9.55163C98.5127 9.38244 98.4013 9.24044 98.2648 9.1407C98.1241 9.05147 98.0001 8.92894 97.9003 8.7806C97.7665 8.58935 97.6735 8.36222 97.6292 8.11861C97.592 7.61423 97.5822 7.1075 97.5998 6.60161C97.6091 6.41129 97.6716 6.23019 97.7774 6.0875C97.8832 5.94481 98.026 5.84884 98.1829 5.81497C98.3408 5.79091 98.4996 5.77705 98.6587 5.77344C100.57 5.77344 102.481 5.77344 104.392 5.77344C104.55 5.78392 104.707 5.80857 104.862 5.84726C104.963 5.88282 105.054 5.95118 105.125 6.04473C105.196 6.13827 105.243 6.25338 105.262 6.37727C105.279 6.56193 105.3 6.75488 105.302 6.94323C105.307 7.45105 105.302 7.95889 105.302 8.4667C105.299 13.3559 105.297 18.2433 105.297 23.1288Z" fill="#3C3C3C"/>
<path d="M12.1612 32.6328C12.1612 34.0297 12.1667 35.4258 12.1612 36.8227C12.1121 37.911 12.4089 38.9813 12.9923 39.8188C13.1453 40.0394 13.3382 40.2156 13.5564 40.3343C13.7745 40.4529 14.0124 40.5109 14.252 40.5039C14.7051 40.5304 15.1562 40.4151 15.5606 40.1695C15.9651 39.9238 16.309 39.5563 16.5583 39.1033C16.9088 38.5422 17.1514 37.8956 17.2688 37.2096C17.3831 36.4626 17.4619 35.7074 17.5423 34.954C17.5824 34.5773 17.584 34.195 17.6149 33.8165C17.6218 33.6568 17.6731 33.5044 17.7605 33.3834C17.8479 33.2624 17.9665 33.1796 18.0976 33.148C18.5652 33.0421 19.0406 32.9935 19.5164 33.003C20.6873 33.1156 20.8518 33.2431 20.8611 34.7573C20.8828 37.0679 20.1853 39.3056 18.9039 41.0357C18.1372 42.1444 17.1304 42.9797 15.9934 43.4506C14.8565 43.9215 13.6332 44.0099 12.4571 43.706C10.9805 43.4051 9.61752 42.5667 8.55432 41.3053C7.27988 39.8566 6.33245 38.0462 5.80008 36.0425C5.23948 33.9229 4.92604 31.721 4.86861 29.4991C4.75802 27.0884 4.86003 24.6705 5.17293 22.2853C5.39467 20.5288 5.81642 18.8168 6.42646 17.197C6.97577 15.7473 7.76961 14.4488 8.75822 13.3828C9.62937 12.4407 10.6857 11.7773 11.829 11.4544C12.9723 11.1316 14.1653 11.1597 15.297 11.5362C16.2279 11.8269 17.0762 12.4114 17.7531 13.2286C18.6342 14.246 19.3252 15.4748 19.7806 16.8342C20.309 18.3607 20.6345 19.9766 20.7453 21.6233C20.8511 23.2022 20.841 24.793 20.8665 26.3793C20.8758 26.9619 20.7213 27.1179 20.176 27.1179C18.2644 27.1234 16.3521 27.0939 14.4412 27.1373C13.7183 27.1539 12.9676 26.8982 12.2709 27.3414C12.1422 28.1455 12.1074 28.967 12.1674 29.7825C12.1466 30.7345 12.1628 31.6864 12.1628 32.6392L12.1612 32.6328ZM12.1612 19.5782C12.1612 20.7785 12.1612 21.988 12.1612 23.1929C12.153 23.3818 12.1657 23.5713 12.1991 23.7562C12.223 23.8605 12.3304 24.01 12.4045 24.0147C12.9869 24.0479 13.5692 24.0581 14.1524 24.0618C14.2173 24.0684 14.2827 24.0589 14.3444 24.0337C14.4061 24.0086 14.4627 23.9683 14.5107 23.9157C14.5587 23.863 14.597 23.7989 14.6232 23.7276C14.6494 23.6563 14.6629 23.5792 14.6629 23.5013C14.6683 23.3111 14.6737 23.1209 14.6745 22.9317C14.6745 20.8395 14.6745 18.7472 14.6745 16.6532C14.6919 16.145 14.6165 15.6384 14.4536 15.1685C14.3858 14.9607 14.2708 14.7797 14.1217 14.6456C13.9726 14.5115 13.7952 14.4298 13.6094 14.4095C13.4525 14.3664 13.2897 14.3635 13.1317 14.401C12.9738 14.4384 12.8242 14.5154 12.6929 14.6268C12.5616 14.7383 12.4515 14.8817 12.3699 15.0476C12.2882 15.2135 12.2369 15.3982 12.2192 15.5895C12.1685 15.9002 12.1475 16.2168 12.1566 16.5332C12.1551 17.5488 12.1597 18.5635 12.1597 19.5773L12.1612 19.5782Z" fill="#3C3C3C"/>
<path d="M28.9462 34.9036C28.8443 34.9673 28.7107 34.9959 28.6643 35.0882C27.9695 36.4345 27.3721 37.8492 26.8786 39.3169C26.8357 39.4166 26.8101 39.5256 26.8031 39.6374C26.7961 39.7492 26.808 39.8615 26.838 39.9677C26.868 40.0739 26.9156 40.1718 26.9779 40.2556C27.0402 40.3393 27.116 40.4073 27.2007 40.4554C27.3633 40.5676 27.4969 40.731 27.5869 40.9279C27.677 41.1248 27.72 41.3475 27.7112 41.5717C27.7166 42.0142 27.7027 42.4567 27.6696 42.8975C27.6424 43.0521 27.5739 43.1919 27.4744 43.2959C27.3749 43.3998 27.2498 43.4622 27.1181 43.4737C25.7906 43.4737 24.4632 43.4687 23.1358 43.4589C23.0304 43.455 22.9293 43.4076 22.8498 43.3245C22.7704 43.2415 22.7175 43.1281 22.7002 43.0037C22.6837 42.4977 22.6729 41.9915 22.6678 41.4849C22.6565 41.3259 22.6806 41.1662 22.7377 41.022C22.7948 40.8779 22.8829 40.7543 22.9929 40.664C23.637 40.0999 24.1301 39.3243 24.4125 38.4315C25.3733 35.9598 26.3704 33.5094 27.3645 31.0571C27.473 30.8038 27.5369 30.5266 27.5522 30.2427C27.5675 29.9587 27.5338 29.674 27.4533 29.4062C26.6644 26.5815 25.882 23.7544 25.1061 20.9248C24.7075 19.4816 24.3083 18.0385 23.9182 16.5917C23.7548 15.7847 23.379 15.0617 22.8462 14.529C22.7004 14.3882 22.5853 14.2071 22.5109 14.0015C22.4365 13.7958 22.405 13.5716 22.419 13.3481C22.419 13.1579 22.4129 12.9677 22.4121 12.7766C22.4121 11.7822 22.5944 11.5385 23.4378 11.5348C25.6684 11.5246 27.8997 11.5348 30.131 11.5348C30.2902 11.5296 30.4491 11.5535 30.6022 11.6058C30.6808 11.6226 30.7543 11.6642 30.8149 11.7264C30.8755 11.7886 30.921 11.8691 30.9467 11.9595C31.079 12.5752 31.079 13.2209 30.9467 13.8366C30.872 14.0718 30.7506 14.2819 30.5929 14.4487C30.443 14.6319 30.3413 14.8635 30.3001 15.115C30.2589 15.3665 30.2802 15.6269 30.3612 15.8641C30.7114 17.1272 31.0749 18.3847 31.4518 19.6367C31.502 19.8029 31.6495 19.9267 31.777 20.1049C32.3439 18.7125 32.903 17.3516 33.4491 15.9842C33.5249 15.7475 33.5846 15.5038 33.6275 15.2557C33.6663 15.1358 33.6722 15.0044 33.6445 14.8802C33.6167 14.7561 33.5567 14.6458 33.4731 14.5651C33.2369 14.3586 33.0544 14.0765 32.9464 13.7515C32.8385 13.4264 32.8095 13.0716 32.8629 12.7277C32.8753 12.5384 32.8752 12.3472 32.8861 12.157C32.9054 11.9997 32.97 11.8553 33.0686 11.7485C33.1672 11.6417 33.2938 11.5792 33.4267 11.5717C34.7006 11.5563 35.9745 11.5499 37.2483 11.5523C37.3796 11.5701 37.5032 11.6351 37.6028 11.7388C37.7024 11.8426 37.7733 11.98 37.806 12.133C37.9151 12.6915 37.9172 13.2723 37.8122 13.8319C37.7701 14.0782 37.6542 14.2975 37.4862 14.4487C37.0764 14.7471 36.7529 15.1887 36.5594 15.7137C35.4029 18.566 34.2444 21.4172 33.0838 24.2671C33.0218 24.4053 32.9847 24.5573 32.9747 24.7136C32.9648 24.8699 32.9822 25.0269 33.0259 25.1747C34.2756 29.6841 35.5208 34.1957 36.7618 38.7094C36.8988 39.3257 37.1695 39.8878 37.5465 40.339C37.7054 40.5074 37.8308 40.7163 37.9134 40.9502C37.996 41.1841 38.0338 41.4371 38.0238 41.6907C38.0107 43.445 38.1327 43.506 36.564 43.4939C34.6517 43.4792 32.7393 43.494 30.8269 43.4875C30.5103 43.4875 30.1928 43.4496 29.8769 43.4164C29.7735 43.3884 29.6786 43.327 29.6023 43.2389C29.526 43.1508 29.4714 43.0394 29.4444 42.9169C29.429 42.35 29.4151 41.7813 29.4375 41.2153C29.4738 41.0327 29.5475 40.8639 29.6522 40.724C29.7097 40.6167 29.7872 40.5267 29.8785 40.4609C30.4276 40.1008 30.3759 39.5976 30.1874 38.9984C29.8468 37.9339 29.5471 36.8499 29.2274 35.7761C29.1424 35.4834 29.0428 35.1917 28.9462 34.9036Z" fill="#3C3C3C"/>
<path d="M40.5768 27.4337C40.5768 23.6901 40.5768 19.9467 40.5768 16.2036C40.5858 15.8869 40.5742 15.5699 40.542 15.2554C40.5368 15.1607 40.5014 15.072 40.443 15.0077C40.3846 14.9434 40.3078 14.9084 40.2284 14.91C40.0698 14.9073 39.9117 14.886 39.7565 14.8464C39.6518 14.829 39.5549 14.7708 39.4807 14.6808C39.4066 14.5908 39.3593 14.4741 39.3464 14.3487C39.3294 13.9692 39.3116 13.5897 39.3116 13.2102C39.3116 11.8798 39.2792 11.9343 40.3736 11.5234C41.3396 11.1688 42.2154 10.5293 42.9205 9.66405C43.6255 8.79875 44.1372 7.73533 44.4084 6.57168C44.4619 6.32852 44.5301 6.09033 44.6123 5.85892C44.649 5.73867 44.7139 5.63359 44.7992 5.5563C44.8846 5.479 44.9867 5.43279 45.0935 5.42313C45.6225 5.40651 46.1524 5.42311 46.6815 5.43142C46.7821 5.47068 46.8736 5.53745 46.9488 5.6264C47.024 5.71536 47.0808 5.82404 47.1147 5.94384C47.1592 6.25436 47.1866 6.56806 47.1966 6.88287C47.209 8.2789 47.2028 9.67399 47.2206 11.07C47.2122 11.1651 47.2349 11.2603 47.284 11.3357C47.3331 11.4111 47.4048 11.4608 47.484 11.4744C47.6384 11.4957 47.7991 11.5114 47.9574 11.528C48.1157 11.5446 48.2756 11.5464 48.4324 11.576C48.5885 11.615 48.7311 11.7097 48.8414 11.8475C48.9517 11.9853 49.0245 12.1597 49.0503 12.3479C49.0712 12.9157 49.0796 13.4873 49.0611 14.0551C49.0464 14.2769 48.9624 14.4841 48.826 14.6354C48.6895 14.7868 48.5105 14.8712 48.3243 14.8722C48.0601 14.8962 47.7944 14.8989 47.5303 14.9156C47.4566 14.9387 47.3896 14.9853 47.3363 15.0503C47.283 15.1153 47.2454 15.1964 47.2275 15.2849C47.2151 15.6644 47.1997 16.0448 47.1997 16.4252C47.1997 23.5943 47.1997 30.7638 47.1997 37.9335C47.1997 38.1237 47.2129 38.3158 47.1997 38.5041C47.1333 38.9452 47.189 39.4002 47.3583 39.8C47.5277 40.1999 47.8014 40.5229 48.1381 40.72C48.3498 40.8568 48.5249 41.0624 48.6431 41.313C48.7613 41.5636 48.8178 41.8491 48.8062 42.1364C48.8077 42.4518 48.7955 42.767 48.7699 43.0809C48.7552 43.3099 48.593 43.3893 48.4463 43.4373C48.2914 43.4803 48.1325 43.4985 47.9736 43.4918C46.1686 43.4918 44.3644 43.4844 42.5602 43.501C42.3493 43.5089 42.1404 43.4502 41.9546 43.3307C41.7688 43.2112 41.6127 43.0353 41.502 42.8206C40.9637 41.8712 40.6516 40.7647 40.5991 39.6195C40.5628 39.1154 40.5798 38.6038 40.5798 38.0979C40.5772 34.5413 40.5762 30.9866 40.5768 27.4337Z" fill="#3C3C3C"/>
</svg>
