<svg width="28" height="28" viewBox="0 0 28 28" fill="none" xmlns="http://www.w3.org/2000/svg">
<path d="M2.5094 14.0153C0.893568 14.5018 0.0419013 15.9846 0.0419013 17.4698C0.0419013 21.5228 5.2919 22.3838 6.91473 19.0459V24.3659C6.91473 28.7468 12.9464 29.1224 14.0057 25.5046C15.1176 29.2076 21.0909 28.6803 21.0909 24.3636C21.0909 22.9263 20.2451 21.6919 19.0306 21.1039H24.3681C28.7711 21.1039 29.1316 15.0128 25.4589 13.9931C29.2809 12.7541 28.6439 6.92077 24.3424 6.92077C22.9261 6.92077 21.6836 7.6546 21.0909 8.88543V3.63427C21.0909 -0.74657 15.0627 -1.12224 14.0011 2.49326C12.8799 -1.25524 6.9124 -0.68357 6.9124 3.63427C6.9124 5.08793 7.77573 6.33627 9.0124 6.9161H3.6364C-0.751432 6.9161 -1.1236 12.9653 2.5094 14.0153V14.0153ZM5.53924 17.4698C5.53924 19.8824 1.7919 20.0819 1.7919 17.4709C1.7919 16.4221 2.45457 15.5844 3.6574 15.5844H5.53924V17.4698ZM7.28924 15.8073C7.23557 14.8296 7.41173 14.5543 7.09557 14.1868H9.10223C8.33573 14.4796 7.67774 15.0198 7.28924 15.8073V15.8073ZM12.4284 24.3659C12.4284 26.8544 8.66357 26.8579 8.66357 24.3659V17.4698C8.66357 14.9883 12.4284 14.9871 12.4284 17.4698V24.3659ZM14.1784 20.9243V19.0273C14.4864 19.7471 15.0149 20.3631 15.7756 20.7329C14.8422 20.7831 14.5482 20.6081 14.1784 20.9243ZM15.5761 24.3659V22.4818C16.0847 22.5961 19.3409 21.8471 19.3409 24.3636C19.3397 26.8486 15.5772 26.8404 15.5761 24.3659ZM24.3681 19.3539H17.4579C14.9741 19.3539 14.9741 15.5844 17.4579 15.5844H24.3681C26.8589 15.5844 26.8624 19.3539 24.3681 19.3539ZM24.3412 8.67193C26.9581 8.67193 26.7597 12.4368 24.3471 12.4368H22.4652C22.6227 11.7181 21.7757 8.67193 24.3412 8.67193ZM20.7152 12.2361C20.7654 13.1741 20.5962 13.4261 20.9019 13.8344H18.9979C19.7224 13.5288 20.3431 12.9991 20.7152 12.2361V12.2361ZM15.5761 3.63427C15.5761 1.14576 19.3409 1.14226 19.3409 3.63427V10.5514C19.3409 13.0411 15.5761 13.0411 15.5761 10.5514V3.63427ZM16.3694 13.9931C15.1082 14.3431 14.3231 15.2811 14.0151 16.3789C13.6534 15.1143 12.6792 14.3396 11.5534 14.0526C12.8601 13.7236 13.6697 12.7669 13.9871 11.6493C14.3394 12.9058 15.2751 13.6863 16.3694 13.9931ZM13.8261 7.0771V8.9951C13.5134 8.2636 12.9744 7.63593 12.1939 7.26843C13.1809 7.21593 13.4131 7.39327 13.8261 7.0771V7.0771ZM12.4284 3.62843V5.51843C11.9221 5.40527 8.66123 6.15543 8.66123 3.63427C8.6624 1.16093 12.4284 1.0816 12.4284 3.62843V3.62843ZM3.6364 8.6661H10.5466C13.0374 8.6661 13.0409 12.4356 10.5466 12.4356H3.6364C1.14557 12.4356 1.14207 8.6661 3.6364 8.6661Z" fill="black"/>
</svg>
