<svg width="24" height="24" viewBox="0 0 24 24" fill="none" xmlns="http://www.w3.org/2000/svg">
<path d="M12 1C8.7835 1 6.16667 3.59716 6.16667 6.78947C6.16667 9.98179 8.7835 12.5789 12 12.5789C15.2165 12.5789 17.8333 9.98179 17.8333 6.78947C17.8333 3.59716 15.2165 1 12 1ZM12 10.2632C10.0703 10.2632 8.5 8.70463 8.5 6.78947C8.5 4.87432 10.0703 3.31579 12 3.31579C13.9297 3.31579 15.5 4.87432 15.5 6.78947C15.5 8.70463 13.9297 10.2632 12 10.2632ZM22.5 23V21.8421C22.5 17.3738 18.8355 13.7368 14.3333 13.7368H9.66667C5.16333 13.7368 1.5 17.3738 1.5 21.8421V23H3.83333V21.8421C3.83333 18.6498 6.45017 16.0526 9.66667 16.0526H14.3333C17.5498 16.0526 20.1667 18.6498 20.1667 21.8421V23H22.5Z" fill="#3F4449"/>
</svg>
